# xmcd
# 
# Track frame offsets:
#     150
#     90150
#     114225
#     141975
# 
# Disc length: 3294
# 
# Revision: 3
# Processed by: cddbd v1.5.2PL0 Copyright (c) Steve Scherf et al.
# Submitted via: BonkEnc v1.0.8
# 
DISCID=270cdc04
DTITLE=Miles Davis - On The Corner
DYEAR=1972
DGENRE=Contemporary Jazz
TTITLE0=On The Corner - New York Girl - Thinkin' One Thing And Doin' Another - Vote For Miles
TTITLE1=Black Satin
TTITLE2=One And One
TTITLE3=Helen Butte - Mr. Freedom
EXTD=YEAR: 1972
EXTT0=
EXTT1=
EXTT2=
EXTT3=
PLAYORDER=
